<svg width="183" height="223" viewBox="0 0 183 223" fill="none" xmlns="http://www.w3.org/2000/svg">
<path d="M182.154 37.4524C182.154 49.2818 176.489 59.8142 167.67 66.5922C161.24 71.525 153.131 74.4754 144.322 74.4754L75.6649 74.0552C54.7703 74.0552 35.8541 82.3405 22.1731 95.7506C8.46425 109.151 0 127.667 0 148.119V74.0552C0 53.6025 8.46425 35.0956 22.1731 21.695C35.8541 8.28514 54.7703 0 75.6649 0L144.322 0.429309C165.216 0.429309 182.154 16.9997 182.154 37.4524Z" fill="#443BFB"/>
<path d="M144.181 74.47C126.254 76.3246 110.175 84.2076 98.1088 96.0184C84.4558 109.383 75.9263 127.762 75.6836 148.105H75.6649V222.16C33.8757 222.17 0 189.011 0 148.105C0 127.662 8.46425 109.136 22.1638 95.7453C35.8634 82.3351 54.7703 74.0498 75.6556 74.0498L144.181 74.47Z" fill="#0171F9"/>
<path d="M182.147 111.508C182.147 129.293 169.352 144.138 152.284 147.691C149.718 148.239 147.058 148.531 144.323 148.531L75.667 148.111C75.9095 127.767 84.4485 109.379 98.092 96.0242C110.159 84.2133 126.247 76.3207 144.164 74.4756H144.315C147.039 74.4756 149.708 74.7496 152.274 75.316C159.525 76.8321 166.002 80.3862 171.069 85.3273C177.91 92.042 182.137 101.296 182.137 111.517L182.147 111.508Z" fill="#18A9FA"/>
</svg>
