<svg width="907" height="223" viewBox="0 0 907 223" fill="none" xmlns="http://www.w3.org/2000/svg">
<path d="M182.154 37.4524C182.154 49.2818 176.489 59.8142 167.67 66.5922C161.24 71.525 153.131 74.4754 144.322 74.4754L75.6649 74.0552C54.7703 74.0552 35.8541 82.3405 22.1731 95.7506C8.46425 109.151 0 127.667 0 148.119V74.0552C0 53.6025 8.46425 35.0956 22.1731 21.695C35.8541 8.28514 54.7703 0 75.6649 0L144.322 0.429309C165.216 0.429309 182.154 16.9997 182.154 37.4524Z" fill="#443BFB"/>
<path d="M144.181 74.47C126.254 76.3246 110.175 84.2076 98.1088 96.0184C84.4558 109.383 75.9263 127.762 75.6836 148.105H75.6649V222.16C33.8757 222.17 0 189.011 0 148.105C0 127.662 8.46425 109.136 22.1638 95.7453C35.8634 82.3351 54.7703 74.0498 75.6556 74.0498L144.181 74.47Z" fill="#0171F9"/>
<path d="M182.147 111.508C182.147 129.293 169.352 144.138 152.284 147.691C149.718 148.239 147.058 148.531 144.323 148.531L75.667 148.111C75.9095 127.767 84.4485 109.379 98.092 96.0242C110.159 84.2133 126.247 76.3207 144.164 74.4756H144.315C147.039 74.4756 149.708 74.7496 152.274 75.316C159.525 76.8321 166.002 80.3862 171.069 85.3273C177.91 92.042 182.137 101.296 182.137 111.517L182.147 111.508Z" fill="#18A9FA"/>
<path d="M262.104 182.41V127.471H322.893V105.801H262.104V66.5862H327.879V44.9171H237.559V182.41H262.104ZM367.095 182.41V125.457C367.095 117.595 369.587 111.362 374.573 106.76C379.462 102.254 386.174 99.9533 394.516 99.9533H405.351V78.3793H392.598C381.189 78.3793 372.752 82.5988 367.095 91.1317H366.04L363.163 78.3793H344.467V182.41H367.095ZM443.607 182.41V78.3793H420.979V182.41H443.607ZM432.197 66.5862C440.635 66.5862 446.484 60.6416 446.484 52.7794C446.484 44.9171 440.635 39.0684 432.197 39.0684C428.075 39.0684 424.718 40.4107 422.034 42.9995C419.349 45.5883 418.007 48.8482 418.007 52.7794C418.007 56.7105 419.349 60.0663 422.13 62.6551C424.814 65.2439 428.171 66.5862 432.197 66.5862ZM513.313 221.722C544.474 221.722 561.445 206.189 561.445 179.439V78.3793H542.748L539.776 91.1317H538.817C532.585 82.407 521.462 76.3664 508.423 76.3664C495.287 76.3664 484.644 80.7767 476.494 89.5014C468.345 98.323 464.222 110.596 464.222 126.416C464.222 142.236 468.345 154.605 476.494 163.33C484.644 172.151 495.287 176.562 508.423 176.562C514.847 176.562 520.6 175.219 525.873 172.439C531.147 169.754 535.078 166.494 537.859 162.754H538.817V179.439C538.817 193.149 529.037 201.108 513.313 201.108C500.465 201.012 492.603 196.792 489.726 188.259H466.139C472.563 210.599 488.288 221.722 513.313 221.722ZM512.546 155.948C504.971 155.948 498.738 153.358 493.944 148.085C489.151 142.812 486.754 135.62 486.754 126.416C486.754 117.307 489.151 110.116 493.849 104.843C498.547 99.5697 504.779 96.9805 512.354 96.9805C519.929 96.9805 526.161 99.6656 531.243 104.939C536.324 110.212 538.817 117.403 538.817 126.416C538.817 135.524 536.324 142.716 531.339 147.989C526.257 153.263 520.025 155.948 512.546 155.948ZM621.275 164.768C609.769 164.768 603.537 159.015 603.537 150.962C603.633 141.853 609.481 137.251 621.275 137.251H646.779V142.14C646.779 156.044 636.999 164.768 621.275 164.768ZM616.289 184.328C623.479 184.328 629.808 182.89 635.273 179.917C640.738 176.945 644.574 173.59 646.779 169.658H647.738L649.656 182.41H669.311V114.623C669.311 102.733 665.572 93.3373 657.997 86.5296C650.423 79.7219 639.78 76.3664 626.165 76.3664C615.33 76.3664 606.222 79.2424 598.839 85.0911C591.456 90.9399 586.662 98.5148 584.264 107.815H607.468C609.673 101.295 616.193 96.0215 626.165 96.0215C638.917 96.0215 646.779 102.829 646.779 114.623V119.608H620.22C607.947 119.608 598.359 122.677 591.456 128.813C584.456 135.045 581.005 142.716 581.005 152.016C581.005 161.413 584.264 169.179 590.688 175.219C597.113 181.26 605.646 184.328 616.289 184.328ZM718.978 155.18C713.992 149.523 711.499 141.181 711.499 130.347C711.499 119.512 713.992 111.171 718.978 105.514C723.963 99.8574 730.292 96.9805 738.057 96.9805C745.824 96.9805 752.152 99.8574 757.138 105.514C762.028 111.171 764.521 119.512 764.521 130.347C764.521 141.181 762.028 149.523 757.138 155.18C752.152 160.837 745.824 163.713 738.057 163.713C730.292 163.713 723.963 160.837 718.978 155.18ZM734.127 184.328C747.167 184.328 758.289 178.384 764.521 169.658H765.576L768.452 182.41H787.149V44.9171H764.521V90.0768H763.562C761.165 86.5296 757.33 83.365 752.057 80.5849C746.783 77.8039 740.743 76.3664 734.127 76.3664C720.511 76.3664 709.581 81.0644 701.335 90.4604C693.089 99.9533 688.967 113.184 688.967 130.347C688.967 147.51 693.089 160.837 701.335 170.233C709.581 179.629 720.511 184.328 734.127 184.328ZM858.676 184.328C870.853 184.328 880.824 181.356 888.591 175.315C896.358 169.37 901.823 161.605 904.987 152.016H880.441C874.784 159.783 867.593 163.713 858.868 163.713C851.101 163.713 844.966 161.317 840.267 156.427C835.569 151.632 832.884 145.209 832.405 137.251H906.041L907 127.471C907 112.992 902.589 100.911 893.864 91.0358C885.139 81.2562 873.154 76.3664 857.909 76.3664C842.952 76.3664 831.062 81.1603 822.146 90.6522C813.228 100.24 808.818 113.472 808.818 130.347C808.818 147.414 813.324 160.646 822.242 170.138C831.158 179.629 843.335 184.328 858.676 184.328ZM832.405 119.608C835.569 105.418 844.582 96.9805 857.909 96.9805C865.004 96.9805 870.757 99.0902 875.263 103.309C879.674 107.527 882.359 112.992 883.414 119.608H832.405Z" fill="white"/>
</svg>
